<svg width="16" height="16" viewBox="0 0 16 16" fill="none" xmlns="http://www.w3.org/2000/svg">
<path d="M2.66675 3.33335C2.66675 3.15654 2.73699 2.98697 2.86201 2.86195C2.98703 2.73693 3.1566 2.66669 3.33341 2.66669H6.00008C6.17689 2.66669 6.34646 2.73693 6.47149 2.86195C6.59651 2.98697 6.66675 3.15654 6.66675 3.33335V6.66669C6.66675 6.8435 6.59651 7.01307 6.47149 7.13809C6.34646 7.26312 6.17689 7.33335 6.00008 7.33335H3.33341C3.1566 7.33335 2.98703 7.26312 2.86201 7.13809C2.73699 7.01307 2.66675 6.8435 2.66675 6.66669V3.33335ZM9.33341 3.33335C9.33341 3.15654 9.40365 2.98697 9.52868 2.86195C9.6537 2.73693 9.82327 2.66669 10.0001 2.66669H12.6667C12.8436 2.66669 13.0131 2.73693 13.1382 2.86195C13.2632 2.98697 13.3334 3.15654 13.3334 3.33335V4.66669C13.3334 4.8435 13.2632 5.01307 13.1382 5.13809C13.0131 5.26312 12.8436 5.33335 12.6667 5.33335H10.0001C9.82327 5.33335 9.6537 5.26312 9.52868 5.13809C9.40365 5.01307 9.33341 4.8435 9.33341 4.66669V3.33335ZM2.66675 10.6667C2.66675 10.4899 2.73699 10.3203 2.86201 10.1953C2.98703 10.0703 3.1566 10 3.33341 10H6.00008C6.17689 10 6.34646 10.0703 6.47149 10.1953C6.59651 10.3203 6.66675 10.4899 6.66675 10.6667V12.6667C6.66675 12.8435 6.59651 13.0131 6.47149 13.1381C6.34646 13.2631 6.17689 13.3334 6.00008 13.3334H3.33341C3.1566 13.3334 2.98703 13.2631 2.86201 13.1381C2.73699 13.0131 2.66675 12.8435 2.66675 12.6667V10.6667ZM9.33341 8.66669C9.33341 8.48988 9.40365 8.32031 9.52868 8.19528C9.6537 8.07026 9.82327 8.00002 10.0001 8.00002H12.6667C12.8436 8.00002 13.0131 8.07026 13.1382 8.19528C13.2632 8.32031 13.3334 8.48988 13.3334 8.66669V12.6667C13.3334 12.8435 13.2632 13.0131 13.1382 13.1381C13.0131 13.2631 12.8436 13.3334 12.6667 13.3334H10.0001C9.82327 13.3334 9.6537 13.2631 9.52868 13.1381C9.40365 13.0131 9.33341 12.8435 9.33341 12.6667V8.66669Z" stroke="white"/>
</svg>
