<svg width="16" height="16" viewBox="0 0 16 16" fill="none" xmlns="http://www.w3.org/2000/svg">
<path d="M7.33338 2.83332C6.48597 2.83336 5.65158 3.04184 4.90374 3.44039C4.1559 3.83893 3.51756 4.4153 3.04499 5.1187C2.57242 5.82211 2.28012 6.63095 2.19384 7.47396C2.10757 8.31697 2.22997 9.16825 2.55026 9.9528C2.87055 10.7374 3.3789 11.4311 4.03051 11.9728C4.68211 12.5146 5.45698 12.8878 6.28681 13.0595C7.11664 13.2312 7.97597 13.1961 8.78906 12.9574C9.60216 12.7187 10.3441 12.2837 10.9494 11.6906C11.0441 11.5978 11.0982 11.4712 11.0995 11.3385C11.1009 11.2059 11.0495 11.0781 10.9567 10.9833C10.8639 10.8885 10.7372 10.8345 10.6046 10.8332C10.4719 10.8318 10.3441 10.8832 10.2494 10.976C9.66331 11.5501 8.92078 11.9385 8.11489 12.0924C7.309 12.2463 6.47561 12.1588 5.71924 11.8409C4.96286 11.5231 4.31715 10.989 3.86309 10.3056C3.40902 9.62229 3.1668 8.8201 3.1668 7.99965C3.1668 7.1792 3.40902 6.37701 3.86309 5.69366C4.31715 5.01032 4.96286 4.47623 5.71924 4.15838C6.47561 3.84052 7.309 3.75304 8.11489 3.90691C8.92078 4.06078 9.66331 4.44915 10.2494 5.02332C10.2956 5.07191 10.3512 5.11069 10.4128 5.13736C10.4743 5.16403 10.5406 5.17803 10.6077 5.17854C10.6748 5.17905 10.7413 5.16605 10.8033 5.14031C10.8652 5.11458 10.9214 5.07664 10.9684 5.02876C11.0154 4.98087 11.0522 4.92402 11.0768 4.86158C11.1014 4.79915 11.1131 4.73241 11.1113 4.66534C11.1096 4.59827 11.0943 4.53224 11.0665 4.47119C11.0387 4.41014 10.9988 4.35532 10.9494 4.30998C9.9845 3.36235 8.68578 2.83199 7.33338 2.83332Z" fill="white"/>
<path d="M8.35338 6.35331C8.4417 6.25853 8.48978 6.13317 8.4875 6.00363C8.48521 5.8741 8.43274 5.75051 8.34113 5.6589C8.24952 5.56729 8.12593 5.51481 7.9964 5.51253C7.86686 5.51024 7.7415 5.55833 7.64672 5.64665L5.64672 7.64665C5.55308 7.7404 5.50049 7.86748 5.50049 7.99998C5.50049 8.13248 5.55308 8.25956 5.64672 8.35331L7.64672 10.3533C7.69249 10.4024 7.74769 10.4418 7.80902 10.4692C7.87036 10.4965 7.93657 10.5112 8.0037 10.5124C8.07084 10.5136 8.13752 10.5012 8.19978 10.4761C8.26204 10.4509 8.31859 10.4135 8.36607 10.366C8.41355 10.3185 8.45098 10.262 8.47613 10.1997C8.50128 10.1375 8.51363 10.0708 8.51244 10.0036C8.51126 9.9365 8.49656 9.87029 8.46924 9.80895C8.44191 9.74762 8.40251 9.69242 8.35338 9.64665L7.20672 8.49998H13.3334C13.466 8.49998 13.5932 8.4473 13.6869 8.35353C13.7807 8.25976 13.8334 8.13259 13.8334 7.99998C13.8334 7.86737 13.7807 7.74019 13.6869 7.64643C13.5932 7.55266 13.466 7.49998 13.3334 7.49998H7.20672L8.35338 6.35331Z" fill="white"/>
</svg>
