<svg width="16" height="16" viewBox="0 0 16 16" fill="none" xmlns="http://www.w3.org/2000/svg">
<path d="M8.00008 10V13.3333C8.00008 13.3333 10.0201 12.9667 10.6667 12C11.3867 10.92 10.6667 8.66667 10.6667 8.66667M3.00008 11C2.00008 11.84 1.66675 14.3333 1.66675 14.3333C1.66675 14.3333 4.16008 14 5.00008 13C5.47341 12.44 5.46675 11.58 4.94008 11.06C4.68095 10.8127 4.33961 10.6698 3.98157 10.6587C3.62352 10.6476 3.274 10.7692 3.00008 11Z" stroke="black" stroke-linecap="round" stroke-linejoin="round"/>
<path d="M6 8.00001C6.35476 7.07963 6.80147 6.19738 7.33333 5.36667C8.11012 4.12467 9.19175 3.10204 10.4753 2.39607C11.7589 1.6901 13.2018 1.32425 14.6667 1.33334C14.6667 3.14667 14.1467 6.33334 10.6667 8.66667C9.82448 9.19896 8.93114 9.64563 8 10L6 8.00001Z" stroke="black" stroke-linecap="round" stroke-linejoin="round"/>
<path d="M6.00008 8.00001H2.66675C2.66675 8.00001 3.03341 5.98001 4.00008 5.33334C5.08008 4.61334 7.33341 5.36667 7.33341 5.36667" stroke="black" stroke-linecap="round" stroke-linejoin="round"/>
</svg>
