<svg width="16" height="16" viewBox="0 0 16 16" fill="none" xmlns="http://www.w3.org/2000/svg">
<path d="M7.99997 3.33333C8.00075 3.06669 7.94821 2.80257 7.84543 2.55653C7.74265 2.31049 7.59171 2.08748 7.40148 1.90063C7.21125 1.71377 6.98558 1.56685 6.73774 1.46849C6.4899 1.37012 6.22489 1.32232 5.9583 1.32787C5.69171 1.33343 5.42892 1.39224 5.18539 1.50084C4.94187 1.60945 4.72251 1.76565 4.54024 1.96027C4.35796 2.15489 4.21644 2.38399 4.124 2.6341C4.03156 2.88421 3.99007 3.15028 4.00197 3.41666C3.6101 3.51742 3.2463 3.70603 2.93812 3.96821C2.62994 4.23038 2.38546 4.55925 2.2232 4.9299C2.06093 5.30055 1.98514 5.70326 2.00156 6.10754C2.01798 6.51182 2.12618 6.90706 2.31797 7.26333C1.98076 7.53729 1.71559 7.88948 1.54553 8.28929C1.37547 8.68909 1.30567 9.12439 1.34221 9.55732C1.37875 9.99025 1.52051 10.4077 1.75517 10.7733C1.98983 11.139 2.31028 11.4418 2.68863 11.6553C2.64191 12.0168 2.66979 12.3841 2.77056 12.7343C2.87132 13.0846 3.04283 13.4106 3.27449 13.692C3.50615 13.9734 3.79304 14.2043 4.11745 14.3705C4.44185 14.5367 4.79689 14.6346 5.16062 14.6582C5.52435 14.6818 5.88906 14.6306 6.23223 14.5077C6.57539 14.3849 6.88972 14.193 7.15581 13.9438C7.42189 13.6947 7.63409 13.3937 7.77928 13.0594C7.92447 12.725 7.99958 12.3645 7.99997 12V3.33333Z" stroke="white" stroke-linecap="round" stroke-linejoin="round"/>
<path d="M5.99987 8.66667C6.55957 8.46977 7.04833 8.11133 7.40432 7.63667C7.76032 7.16201 7.96757 6.59245 7.99987 6M4.00187 3.41667C4.01505 3.73916 4.10609 4.05366 4.2672 4.33333M2.31787 7.264C2.43983 7.16467 2.57034 7.07633 2.70787 7M3.99987 12C3.54042 12.0002 3.08872 11.8817 2.68854 11.656M7.99987 8.66667H10.6665M7.99987 12H11.9999C12.3535 12 12.6926 12.1405 12.9427 12.3905C13.1927 12.6406 13.3332 12.9797 13.3332 13.3333V14M7.99987 5.33333H13.3332M10.6665 5.33333V3.33333C10.6665 2.97971 10.807 2.64057 11.0571 2.39052C11.3071 2.14048 11.6462 2 11.9999 2" stroke="white" stroke-linecap="round" stroke-linejoin="round"/>
<path d="M10.6666 8.99999C10.8507 8.99999 10.9999 8.85076 10.9999 8.66666C10.9999 8.48257 10.8507 8.33333 10.6666 8.33333C10.4825 8.33333 10.3333 8.48257 10.3333 8.66666C10.3333 8.85076 10.4825 8.99999 10.6666 8.99999Z" stroke="white" stroke-linecap="round" stroke-linejoin="round"/>
<path d="M12.0001 2.33334C12.1842 2.33334 12.3334 2.1841 12.3334 2.00001C12.3334 1.81591 12.1842 1.66667 12.0001 1.66667C11.816 1.66667 11.6667 1.81591 11.6667 2.00001C11.6667 2.1841 11.816 2.33334 12.0001 2.33334Z" stroke="white" stroke-linecap="round" stroke-linejoin="round"/>
<path d="M13.3333 14.3333C13.5174 14.3333 13.6667 14.1841 13.6667 14C13.6667 13.8159 13.5174 13.6667 13.3333 13.6667C13.1492 13.6667 13 13.8159 13 14C13 14.1841 13.1492 14.3333 13.3333 14.3333Z" stroke="white" stroke-linecap="round" stroke-linejoin="round"/>
<path d="M13.3333 5.66667C13.5174 5.66667 13.6667 5.51743 13.6667 5.33333C13.6667 5.14924 13.5174 5 13.3333 5C13.1492 5 13 5.14924 13 5.33333C13 5.51743 13.1492 5.66667 13.3333 5.66667Z" stroke="white" stroke-linecap="round" stroke-linejoin="round"/>
</svg>
