<svg width="16" height="16" viewBox="0 0 16 16" fill="none" xmlns="http://www.w3.org/2000/svg">
<path d="M11.9999 14C11.9999 12.5855 11.438 11.229 10.4378 10.2288C9.43763 9.22857 8.08107 8.66667 6.66659 8.66667C5.2521 8.66667 3.89554 9.22857 2.89535 10.2288C1.89516 11.229 1.33325 12.5855 1.33325 14" stroke="black" stroke-linecap="round" stroke-linejoin="round"/>
<path d="M6.66658 8.66667C8.50753 8.66667 9.99992 7.17428 9.99992 5.33333C9.99992 3.49238 8.50753 2 6.66658 2C4.82564 2 3.33325 3.49238 3.33325 5.33333C3.33325 7.17428 4.82564 8.66667 6.66658 8.66667Z" stroke="black" stroke-linecap="round" stroke-linejoin="round"/>
<path d="M14.6666 13.3333C14.6666 11.0867 13.3333 8.99999 12 7.99999C12.4382 7.67117 12.7887 7.23938 13.0203 6.74284C13.252 6.24629 13.3576 5.70031 13.328 5.15319C13.2983 4.60608 13.1342 4.07472 12.8503 3.60613C12.5663 3.13754 12.1712 2.74617 11.7 2.46666" stroke="black" stroke-linecap="round" stroke-linejoin="round"/>
</svg>
