<svg width="32" height="8" viewBox="0 0 32 8" fill="none" xmlns="http://www.w3.org/2000/svg">
<path d="M4.10156 1.75781V7.61719H3.51562C2.34375 7.61719 1.75781 7.03125 1.75781 5.85938V1.75781H0V0H5.85938C5.85938 1.17188 5.27344 1.75781 4.10156 1.75781Z" fill="white"/>
<path d="M8.78906 5.11719H9.96094V2.61719H8.78906V5.11719ZM8.20312 7.61719C7.03125 7.61719 6.44531 7.03125 6.44531 5.85938V0H10.5469C11.7188 0 12.3047 0.585938 12.3047 1.75781V7.61719H8.20312Z" fill="white"/>
<path d="M15.2344 4.6875V7.61719H12.8906V0H15.2344V2.92969H16.4062V0H18.75V1.75781C18.75 2.92969 18.1641 3.71094 16.9922 4.10156H18.75V7.61719H16.4062V4.6875H15.2344Z" fill="white"/>
<path d="M21.6797 4.6875V7.61719H19.3359V0H21.6797V2.92969H22.8516V0H25.1953V1.75781C25.1953 2.92969 24.6094 3.71094 23.4375 4.10156H25.1953V7.61719H22.8516V4.6875H21.6797Z" fill="white"/>
<path d="M28.125 5.61719H29.2969V2.61719H28.125V5.61719ZM27.5391 7.61719C26.3672 7.61719 25.7812 7.03125 25.7812 5.85938V0H29.8828C31.0547 0 31.6406 0.585938 31.6406 1.75781V7.61719H27.5391Z" fill="white"/>
</svg>
